<?xml version="1.0" standalone="no"?>
<!DOCTYPE svg PUBLIC "-//W3C//DTD SVG 20010904//EN"
 "http://www.w3.org/TR/2001/REC-SVG-20010904/DTD/svg10.dtd">
<svg version="1.0" xmlns="http://www.w3.org/2000/svg"
 width="260.000000pt" height="260.000000pt" viewBox="0 0 260.000000 260.000000"
 preserveAspectRatio="xMidYMid meet">
<metadata>
Created by potrace 1.11, written by Peter Selinger 2001-2013
</metadata>
<g transform="translate(0.000000,260.000000) scale(0.100000,-0.100000)"
fill="#000000" stroke="none">
<path d="M450 2564 c-19 -2 -71 -11 -115 -20 -162 -33 -242 -113 -281 -279
-18 -75 -19 -135 -19 -965 0 -830 1 -890 19 -965 38 -164 117 -243 281 -281
75 -18 135 -19 965 -19 826 0 890 1 965 19 47 10 104 32 137 52 73 44 118 117
144 229 18 75 19 139 19 965 0 826 -1 890 -19 965 -37 159 -111 237 -266 278
-72 20 -110 20 -935 22 -473 1 -876 1 -895 -1z m306 -123 c110 -49 190 -168
201 -300 l6 -68 427 -247 427 -246 59 33 c55 30 66 32 154 32 82 0 103 -4 151
-26 69 -32 130 -91 162 -156 32 -64 39 -95 38 -177 -1 -126 -82 -249 -201
-305 -47 -22 -69 -26 -150 -26 -88 0 -99 2 -154 32 l-59 33 -427 -246 -428
-247 -4 -66 c-12 -167 -134 -304 -291 -329 -157 -25 -310 54 -377 193 -35 72
-40 199 -11 276 26 67 86 139 147 175 l44 26 0 499 0 499 -39 19 c-55 29 -126
112 -151 179 -30 79 -26 205 10 277 84 171 289 244 466 166z"/>
<path d="M778 1818 l-48 -31 0 -491 0 -492 28 -11 c15 -6 39 -19 53 -29 l27
-17 422 244 423 244 0 65 -1 65 -418 242 c-231 133 -423 242 -429 242 -5 -1
-31 -14 -57 -31z"/>
</g>
</svg>
